<?xml version="1.0" encoding="UTF-8" standalone="no"?>
<!-- Created with Inkscape (http://www.inkscape.org/) -->

<svg
   xmlns:dc="http://purl.org/dc/elements/1.1/"
   xmlns:cc="http://creativecommons.org/ns#"
   xmlns:rdf="http://www.w3.org/1999/02/22-rdf-syntax-ns#"
   xmlns:svg="http://www.w3.org/2000/svg"
   xmlns="http://www.w3.org/2000/svg"
   xmlns:xlink="http://www.w3.org/1999/xlink"
   xmlns:sodipodi="http://sodipodi.sourceforge.net/DTD/sodipodi-0.dtd"
   xmlns:inkscape="http://www.inkscape.org/namespaces/inkscape"
   id="svg2"
   version="1.1"
   inkscape:version="0.48.5 r10040"
   width="500"
   height="498.70007"
   sodipodi:docname="encours-tournevis.svg">
  <metadata
     id="metadata8">
    <rdf:RDF>
      <cc:Work
         rdf:about="">
        <dc:format>image/svg+xml</dc:format>
        <dc:type
           rdf:resource="http://purl.org/dc/dcmitype/StillImage" />
        <dc:title></dc:title>
      </cc:Work>
    </rdf:RDF>
  </metadata>
  <defs
     id="defs6">
    <linearGradient
       id="linearGradient3854"
       inkscape:collect="always">
      <stop
         id="stop3856"
         offset="0"
         style="stop-color:#c2c2c2;stop-opacity:1" />
      <stop
         style="stop-color:#b6b6b6;stop-opacity:1;"
         offset="0.25583956"
         id="stop3866" />
      <stop
         style="stop-color:#868686;stop-opacity:1"
         offset="0.35209727"
         id="stop3862" />
      <stop
         style="stop-color:#848484;stop-opacity:1"
         offset="0.50179422"
         id="stop3860" />
      <stop
         id="stop3864"
         offset="0.57803786"
         style="stop-color:#989898;stop-opacity:1;" />
      <stop
         id="stop3858"
         offset="1"
         style="stop-color:#848484;stop-opacity:1" />
    </linearGradient>
    <linearGradient
       inkscape:collect="always"
       id="linearGradient3844">
      <stop
         style="stop-color:#c2c2c2;stop-opacity:1"
         offset="0"
         id="stop3846" />
      <stop
         style="stop-color:#e3e3e3;stop-opacity:1"
         offset="1"
         id="stop3848" />
    </linearGradient>
    <linearGradient
       id="linearGradient3828"
       inkscape:collect="always">
      <stop
         id="stop3830"
         offset="0"
         style="stop-color:#33374f;stop-opacity:1" />
      <stop
         id="stop3832"
         offset="1"
         style="stop-color:#5f617f;stop-opacity:1" />
    </linearGradient>
    <linearGradient
       inkscape:collect="always"
       id="linearGradient3790">
      <stop
         style="stop-color:#454a6b;stop-opacity:1;"
         offset="0"
         id="stop3792" />
      <stop
         style="stop-color:#6b6e8f;stop-opacity:1"
         offset="1"
         id="stop3794" />
    </linearGradient>
    <linearGradient
       inkscape:collect="always"
       id="linearGradient3771">
      <stop
         style="stop-color:#2e2d32;stop-opacity:1"
         offset="0"
         id="stop3773" />
      <stop
         id="stop3779"
         offset="0.34543011"
         style="stop-color:#49494b;stop-opacity:1" />
      <stop
         style="stop-color:#292a2b;stop-opacity:1"
         offset="0.70930851"
         id="stop3781" />
      <stop
         id="stop3783"
         offset="0.92879462"
         style="stop-color:#494a4c;stop-opacity:1" />
      <stop
         style="stop-color:#3a3a3a;stop-opacity:1"
         offset="1"
         id="stop3775" />
    </linearGradient>
    <linearGradient
       inkscape:collect="always"
       xlink:href="#linearGradient3844"
       id="linearGradient3892"
       gradientUnits="userSpaceOnUse"
       x1="45.158581"
       y1="83.830788"
       x2="45.158581"
       y2="87.043022" />
    <linearGradient
       inkscape:collect="always"
       xlink:href="#linearGradient3854"
       id="linearGradient3894"
       gradientUnits="userSpaceOnUse"
       x1="19.531578"
       y1="83.40461"
       x2="19.531578"
       y2="87.411728" />
    <linearGradient
       inkscape:collect="always"
       xlink:href="#linearGradient3771"
       id="linearGradient3896"
       gradientUnits="userSpaceOnUse"
       x1="128.56198"
       y1="75.356651"
       x2="128.56198"
       y2="95.100883" />
    <linearGradient
       inkscape:collect="always"
       xlink:href="#linearGradient3790"
       id="linearGradient3898"
       gradientUnits="userSpaceOnUse"
       x1="89.497887"
       y1="83.322838"
       x2="89.497887"
       y2="87.665283" />
    <linearGradient
       inkscape:collect="always"
       xlink:href="#linearGradient3790"
       id="linearGradient3900"
       gradientUnits="userSpaceOnUse"
       x1="94.269119"
       y1="83.421143"
       x2="94.269119"
       y2="87.615852" />
    <linearGradient
       inkscape:collect="always"
       xlink:href="#linearGradient3790"
       id="linearGradient3902"
       gradientUnits="userSpaceOnUse"
       x1="98.611282"
       y1="83.519455"
       x2="98.611282"
       y2="87.518898" />
    <radialGradient
       inkscape:collect="always"
       xlink:href="#linearGradient3828"
       id="radialGradient3904"
       gradientUnits="userSpaceOnUse"
       gradientTransform="matrix(1.5420541,5.9949062e-7,-7.8005978e-7,1.2777735,-83.347033,-24.621388)"
       cx="152.07431"
       cy="86.206688"
       fx="152.07431"
       fy="86.206688"
       r="3.6837101" />
  </defs>
  <sodipodi:namedview
     pagecolor="#ffffff"
     bordercolor="#666666"
     borderopacity="1"
     objecttolerance="10"
     gridtolerance="10"
     guidetolerance="10"
     inkscape:pageopacity="0"
     inkscape:pageshadow="2"
     inkscape:window-width="1920"
     inkscape:window-height="1005"
     id="namedview4"
     showgrid="false"
     inkscape:zoom="0.67428569"
     inkscape:cx="174.10221"
     inkscape:cy="160.15574"
     inkscape:window-x="-9"
     inkscape:window-y="-9"
     inkscape:window-maximized="1"
     inkscape:current-layer="svg2"
     inkscape:object-nodes="true"
     inkscape:snap-smooth-nodes="true"
     fit-margin-top="0"
     fit-margin-left="0"
     fit-margin-right="0"
     fit-margin-bottom="0" />
  <g
     id="g3881"
     transform="matrix(3.2782957,-3.2782957,3.2782957,3.2782957,-324.4408,263.64734)">
    <g
       transform="translate(0,0.26216884)"
       id="g3872">
      <g
         id="g3868">
        <path
           sodipodi:nodetypes="ccccccc"
           inkscape:connector-curvature="0"
           id="path2987"
           d="m 86.646798,83.371995 -68.636197,0 -4.077644,1.39918 0.02243,0.620109 4.055217,1.913243 69.02945,0 z"
           style="color:#000000;fill:url(#linearGradient3892);fill-opacity:1;stroke:none;stroke-width:0.1;marker:none;visibility:visible;display:inline;overflow:visible;enable-background:accumulate" />
        <path
           inkscape:connector-curvature="0"
           id="rect3765"
           d="m 18,83.375 -4.0625,1.40625 0.03125,0.625 L 18,87.3125 l 4.46875,0 0,-3.9375 -4.46875,0 z"
           style="color:#000000;fill:url(#linearGradient3894);fill-opacity:1;stroke:none;stroke-width:0.1;marker:none;visibility:visible;display:inline;overflow:visible;enable-background:accumulate" />
      </g>
    </g>
    <path
       sodipodi:nodetypes="ccsccsccsccsccsscsssss"
       inkscape:connector-curvature="0"
       id="path2989"
       d="M 150.4375,75.09375 128,75.1875 c -5.09149,0.634657 -7.58783,1.290017 -11.96875,3.90625 -1.37027,0.818303 -2.7323,1.25912 -5,1.34375 L 86.8125,81.34375 C 84.927941,81.480093 83.5,81.408372 83.5,83.25 l 0,2.0625 0,0.4375 0,2.0625 c 0,1.841628 1.427941,1.769907 3.3125,1.90625 l 24.21875,0.90625 c 2.2677,0.08463 3.62973,0.525447 5,1.34375 4.38092,2.616233 6.87726,3.271593 11.96875,3.90625 l 22.4375,0.09375 c 2.37629,0.0098 11.5,-2.210225 11.5,-10.09375 l 0,-0.6875 c 0,-7.883525 -9.12371,-10.10355 -11.5,-10.09375 z M 152.5625,84 c 0.8564,0 1.53125,0.706106 1.53125,1.5625 0,0.856393 -0.67485,1.5625 -1.53125,1.5625 -0.85639,0 -3.36921,0.505951 -3.39768,-1.595271 C 149.13811,83.558209 151.70611,84 152.5625,84 z"
       style="color:#000000;fill:url(#linearGradient3896);fill-opacity:1;stroke:none;stroke-width:0.1;marker:none;visibility:visible;display:inline;overflow:visible;enable-background:accumulate" />
    <path
       id="rect3755"
       d="m 89.727279,82.945961 c 0.5265,0 0.950362,0.423861 0.950362,0.950362 l 0,3.047713 c 0,0.5265 -0.423862,0.950362 -0.950362,0.950362 -0.526501,0 -0.950362,-0.423862 -0.950362,-0.950362 l 0,-3.047713 c 0,-0.526501 0.423861,-0.950362 0.950362,-0.950362 z"
       style="color:#000000;fill:url(#linearGradient3898);fill-opacity:1;stroke:none;stroke-width:0.1;marker:none;visibility:visible;display:inline;overflow:visible;enable-background:accumulate"
       inkscape:connector-curvature="0" />
    <path
       id="rect3757"
       d="m 94.134993,82.945961 c 0.526501,0 0.950362,0.423861 0.950362,0.950362 l 0,3.047713 c 0,0.5265 -0.423861,0.950362 -0.950362,0.950362 -0.5265,0 -0.950362,-0.423862 -0.950362,-0.950362 l 0,-3.047713 c 0,-0.526501 0.423862,-0.950362 0.950362,-0.950362 z"
       style="color:#000000;fill:url(#linearGradient3900);fill-opacity:1;stroke:none;stroke-width:0.1;marker:none;visibility:visible;display:inline;overflow:visible;enable-background:accumulate"
       inkscape:connector-curvature="0" />
    <path
       id="rect3759"
       d="m 98.542701,82.945961 c 0.5265,0 0.950362,0.423861 0.950362,0.950362 l 0,3.047713 c 0,0.5265 -0.423862,0.950362 -0.950362,0.950362 -0.526501,0 -0.950362,-0.423862 -0.950362,-0.950362 l 0,-3.047713 c 0,-0.526501 0.423861,-0.950362 0.950362,-0.950362 z"
       style="color:#000000;fill:url(#linearGradient3902);fill-opacity:1;stroke:none;stroke-width:0.1;marker:none;visibility:visible;display:inline;overflow:visible;enable-background:accumulate"
       inkscape:connector-curvature="0" />
    <path
       inkscape:connector-curvature="0"
       id="path3761"
       d="m 151.14491,81.90625 c -2.50618,0 -4.54259,1.625063 -4.54259,3.625 0,1.999937 2.03641,3.625 4.54259,3.625 2.50618,0 4.54259,-1.625063 4.54259,-3.625 0,-1.999937 -2.03641,-3.625 -4.54259,-3.625 z M 151.73231,84 c 1.07318,0 1.95802,0.706106 1.95802,1.5625 0,0.856393 -0.88484,1.53125 -1.95802,1.53125 -1.07316,0 -1.91885,-0.674857 -1.91885,-1.53125 0,-0.856394 0.84569,-1.5625 1.91885,-1.5625 z"
       style="color:#000000;fill:url(#radialGradient3904);fill-opacity:1;stroke:none;stroke-width:0.1;marker:none;visibility:visible;display:inline;overflow:visible;enable-background:accumulate" />
  </g>
</svg>
